<?xml version="1.0" encoding="UTF-8" standalone="no"?>
<!-- Created with Inkscape (http://www.inkscape.org/) -->

<svg
   width="210mm"
   height="297mm"
   viewBox="0 0 210 297"
   version="1.1"
   id="svg1"
   inkscape:version="1.3.2 (091e20e, 2023-11-25)"
   sodipodi:docname="hollow-knight-false-knight.svg"
   xmlns:inkscape="http://www.inkscape.org/namespaces/inkscape"
   xmlns:sodipodi="http://sodipodi.sourceforge.net/DTD/sodipodi-0.dtd"
   xmlns="http://www.w3.org/2000/svg"
   xmlns:svg="http://www.w3.org/2000/svg">
  <sodipodi:namedview
     id="namedview1"
     pagecolor="#ffffff"
     bordercolor="#000000"
     borderopacity="0.25"
     inkscape:showpageshadow="2"
     inkscape:pageopacity="0.0"
     inkscape:pagecheckerboard="0"
     inkscape:deskcolor="#d1d1d1"
     inkscape:document-units="mm"
     inkscape:zoom="2.9580495"
     inkscape:cx="403.13727"
     inkscape:cy="142.32352"
     inkscape:window-width="1920"
     inkscape:window-height="1027"
     inkscape:window-x="0"
     inkscape:window-y="25"
     inkscape:window-maximized="1"
     inkscape:current-layer="layer1"
     showguides="false" />
  <defs
     id="defs1">
    <inkscape:path-effect
       effect="bspline"
       id="path-effect29"
       is_visible="true"
       lpeversion="1.3"
       weight="33.333333"
       steps="2"
       helper_size="0"
       apply_no_weight="true"
       apply_with_weight="true"
       only_selected="false"
       uniform="false" />
    <inkscape:path-effect
       effect="offset"
       id="path-effect21"
       is_visible="true"
       lpeversion="1.2"
       linejoin_type="miter"
       unit="mm"
       offset="0.2"
       miter_limit="4"
       attempt_force_join="false"
       update_on_knot_move="true" />
    <inkscape:path-effect
       effect="offset"
       id="path-effect17"
       is_visible="true"
       lpeversion="1.2"
       linejoin_type="miter"
       unit="mm"
       offset="0"
       miter_limit="4"
       attempt_force_join="false"
       update_on_knot_move="true" />
    <inkscape:path-effect
       effect="offset"
       id="path-effect16"
       is_visible="true"
       lpeversion="1.2"
       linejoin_type="miter"
       unit="mm"
       offset="0.2"
       miter_limit="4"
       attempt_force_join="false"
       update_on_knot_move="true" />
    <inkscape:path-effect
       effect="offset"
       id="path-effect15"
       is_visible="true"
       lpeversion="1.2"
       linejoin_type="miter"
       unit="mm"
       offset="0.2"
       miter_limit="4"
       attempt_force_join="false"
       update_on_knot_move="true" />
  </defs>
  <g
     inkscape:label="Layer 1"
     inkscape:groupmode="layer"
     id="layer1">
    <path
       style="fill:#707181;stroke:#000000;stroke-width:0.2;stroke-dasharray:none;fill-opacity:1"
       d="m 115.04745,34.277962 c 0,0 2.02937,0.621466 2.75709,1.338474 0.75763,0.746476 1.43589,2.849429 1.43589,2.849429 l -1.99515,1.920432 c 0,0 -1.76675,-0.859558 -2.583,-1.400983 -0.7642,-0.506895 -2.14887,-1.717782 -2.14887,-1.717782 z"
       id="path11"
       sodipodi:nodetypes="caccacc"
       inkscape:export-filename="../preview/hollow-knight-false-knight.png"
       inkscape:export-xdpi="300"
       inkscape:export-ydpi="300" />
    <path
       id="path52"
       style="fill:#707181;stroke-width:0.2;fill-opacity:1;stroke:#000000;stroke-dasharray:none"
       d="m 106.76914,34.133235 c 0,1.183584 0.59011,2.190646 1.33096,2.99251 0.71095,0.769508 1.58472,1.500072 2.76191,1.500072 2.36077,0 4.26821,-2.032917 4.09286,-4.05653 -0.0951,-1.097332 -0.57722,-2.165084 -1.37344,-2.862068 -0.90899,-0.795696 -2.41315,-1.121786 -3.44617,-1.121786 -2.36078,0 -3.36612,1.114356 -3.36612,3.547802 z"
       sodipodi:nodetypes="sassass" />
    <path
       style="fill:#707181;fill-opacity:1;stroke:#000000;stroke-width:0.2;stroke-dasharray:none"
       d="m 110.24028,54.295272 0.94515,3.037983 c 0,0 -0.0734,1.05969 -0.2365,1.559534 -0.2039,0.624793 -0.91118,1.748493 -0.91118,1.748493 l -0.60759,-2.970474 -1.8228,-1.485236 z"
       id="path3"
       sodipodi:nodetypes="ccacccc" />
    <path
       style="fill:#707181;stroke:#000000;stroke-width:0.2;stroke-dasharray:none;fill-opacity:1"
       d="m 93.651948,54.866723 -0.94515,3.037983 1.147681,3.308027 0.607597,-2.970474 1.822791,-1.485236 z"
       id="path2" />
    <path
       id="path1"
       style="fill:#bfbfc3;stroke:#000000;stroke-width:0.2;stroke-dasharray:none;fill-opacity:1"
       d="m 114.43192,43.965189 c 0,4.3935 -0.0609,6.643425 -1.9593,9.096218 -2.41982,3.126533 -6.81696,5.325277 -10.59802,5.325276 -4.128651,-10e-7 -8.743109,-1.984523 -11.191583,-5.291717 -2.502369,-3.379992 -2.080859,-9.121199 -1.792785,-12.46275 0.294917,-3.420924 7.378825,-9.716037 12.822108,-10.228399 3.19253,-0.300505 6.02261,2.463733 8.50762,4.490381 1.13446,0.925209 2.13036,2.085008 2.78918,3.392283 0.87823,1.74262 1.42278,3.8842 1.42278,5.678708 z"
       sodipodi:nodetypes="sasasaaas" />
    <path
       style="fill:none;fill-opacity:1;stroke:#e0e0e1;stroke-width:0.2;stroke-dasharray:none;stroke-opacity:1"
       d="M 114.53912,44.52582 104.08549,39.889873 88.747537,48.095679"
       id="path16"
       sodipodi:nodetypes="ccc" />
    <path
       style="fill:#707181;stroke:#000000;stroke-width:0.2;stroke-dasharray:none;fill-opacity:1"
       d="m 91.124711,36.106018 -4.215143,3.494129 2.440344,2.828584 4.991616,-3.272282 z"
       id="path9" />
    <path
       style="fill:#707181;fill-opacity:1;stroke:#000000;stroke-width:0.2;stroke-dasharray:none"
       d="m 97.740834,36.221347 2.534186,-0.524314 -1.092323,-5.24314 -2.140948,0.873858 -0.830164,0.262157 -0.436928,0.393234 v 2.140948 l 1.136015,1.267092 z"
       id="path55" />
    <path
       id="path4"
       style="fill:#707181;stroke-width:0.2;fill-opacity:1;stroke:#000000;stroke-dasharray:none"
       d="m 97.972712,35.145606 c 0,1.183584 -0.590109,2.190646 -1.330956,2.99251 -0.710953,0.769508 -1.584723,1.500072 -2.761911,1.500072 -2.360772,0 -4.268213,-2.032917 -4.092868,-4.05653 0.09508,-1.097332 0.577227,-2.165084 1.373448,-2.862068 0.908987,-0.795696 2.413146,-1.121786 3.446172,-1.121786 2.360772,0 3.366115,1.114356 3.366115,3.547802 z"
       sodipodi:nodetypes="sassass" />
    <path
       id="path30"
       style="fill:#a0a2a6;fill-opacity:1;stroke:none;stroke-width:0.2;stroke-opacity:1"
       d="m 94.63908,31.694911 c -1.033025,0 -2.537315,0.3262 -3.446301,1.121895 -0.79622,0.696983 -1.396676,1.775801 -1.314486,2.874172 0.06337,0.846905 0.295724,1.684096 0.823235,2.401531 l 0.09043,-0.03876 c 0,0 -2.138242,-3.741419 1.44158,-5.631754 0.02215,-0.0117 -0.0051,0.0026 0.01654,-0.0088 0.158376,-0.05414 5.075021,-1.643866 5.491294,2.418974 0.05406,0.527643 0.133809,0.05779 0.124009,-0.02946 -0.118962,-2.127874 -1.012919,-3.10782 -3.226317,-3.10782 z"
       sodipodi:nodetypes="sssccscscss" />
    <path
       style="fill:#707181;fill-opacity:1;stroke:#000000;stroke-width:0.2;stroke-dasharray:none"
       d="m 107.79018,34.473634 2.01829,0.06585 -1.87449,-1.671394 -0.14411,1.605541 z"
       id="path56"
       sodipodi:nodetypes="ccccc" />
    <g
       id="g9"
       transform="translate(-0.01944069,3.855029)">
      <path
         style="display:inline;fill:#707181;stroke:#000000;stroke-width:0.2;stroke-dasharray:none;fill-opacity:1"
         d="m 95.865265,16.405112 c -0.285117,0.02454 -0.320692,4.668367 0.06751,6.953607 0.234786,1.382121 1.350214,3.983136 1.350214,3.983136 l 1.401242,2.059866 c 0,0 -0.371681,0.529775 -0.434703,0.838113 -0.06646,0.325161 0.07484,0.992833 0.07484,0.992833 0,0 0.274414,-0.546064 0.714708,-0.32825 1.888074,0.934027 4.943384,3.994077 6.459544,3.768345 1.51616,-0.225732 2.84531,-4.680507 2.84531,-4.680507 0,0 0.17651,-0.654586 0.40596,-0.711351 0.22944,-0.05676 0.78443,-0.329216 0.78443,-0.329216 0,0 -0.51544,-0.49782 -0.82873,-0.661441 -0.27031,-0.141175 -0.87693,-0.260734 -0.87693,-0.260734 0,0 0.25483,-2.001905 0.21091,-3.005112 -0.0489,-1.115878 -0.14644,-2.258788 -0.52583,-3.309327 -0.80884,-2.239659 -3.53174,-6.2602 -3.64558,-6.143479 -0.11384,0.116721 3.41413,9.16631 -0.471,10.426958 -3.885139,1.260648 -7.246874,-9.617973 -7.531991,-9.593438 z"
         id="path5"
         sodipodi:nodetypes="zaccacszczcacaaszzz" />
      <path
         id="path25"
         style="display:inline;fill:#a0a2a6;fill-opacity:1;stroke:none;stroke-width:0.2;stroke-dasharray:none"
         d="m 95.827032,16.460008 -5.17e-4,5.17e-4 c 0,0 3.20028,12.452824 8.330755,9.538952 0.13208,-0.07502 0.3704,-0.391912 0.53928,-0.702643 0.019,-0.03496 0.14218,-0.226789 -0.12157,-0.04357 -0.11858,0.216406 -0.36013,0.511953 -1.22541,0.792721 -3.853987,1.25054 -7.190934,-9.43836 -7.522538,-9.585978 z"
         sodipodi:nodetypes="ccsscscc" />
      <path
         style="fill:none;stroke:#000000;stroke-width:0.2;stroke-dasharray:none"
         d="m 103.27812,25.998268 c 0,0 2.72982,2.307346 2.24235,8.676923"
         id="path6" />
      <ellipse
         style="fill:#000000;stroke:none;stroke-width:0.302752;stroke-dasharray:none"
         id="path7"
         cx="67.472893"
         cy="74.091263"
         rx="0.75206369"
         ry="1.3982831"
         transform="matrix(0.90771998,-0.41957649,0.57541003,0.81786509,0,0)" />
      <ellipse
         style="fill:#000000;stroke:none;stroke-width:0.230553;stroke-dasharray:none"
         id="ellipse7"
         cx="-113.30289"
         cy="-38.644283"
         rx="0.50903147"
         ry="1.1980482"
         transform="matrix(-0.80414908,-0.59442767,-0.40269191,0.91533558,0,0)" />
      <ellipse
         style="fill:#000000;stroke:none;stroke-width:0.0913359;stroke-dasharray:none"
         id="ellipse8"
         cx="-106.45957"
         cy="-19.948534"
         rx="0.22254388"
         ry="0.43007591"
         transform="matrix(-0.89459375,-0.44688033,-0.54558499,0.8380555,0,0)" />
      <ellipse
         style="fill:#000000;stroke:none;stroke-width:0.0913359;stroke-dasharray:none"
         id="ellipse9"
         cx="71.275032"
         cy="75.019623"
         rx="0.22254388"
         ry="0.43007591"
         transform="matrix(0.89459375,-0.44688033,0.54558499,0.8380555,0,0)" />
      <path
         style="fill:#a0a2a6;fill-opacity:1;stroke:none;stroke-width:0.2;stroke-opacity:1"
         d="m 107.68574,28.083171 c 0,0 1.02567,0.487134 1.4906,0.920665 0.0744,0.06939 0.29958,-0.05846 0.29958,-0.05846 l -0.64301,-0.540705 -0.78913,-0.321504 z"
         id="path26"
         sodipodi:nodetypes="cscccc" />
    </g>
    <ellipse
       style="fill:#707181;stroke:#000000;stroke-width:0.193968;stroke-dasharray:none;fill-opacity:1"
       id="path10"
       cx="88.379326"
       cy="41.569061"
       rx="2.6344635"
       ry="2.9117754" />
    <path
       style="fill:none;fill-opacity:1;stroke:#000000;stroke-width:0.2;stroke-dasharray:none"
       d="m 88.841883,48.272027 15.251827,-8.159726 10.36433,4.596347"
       id="path73"
       sodipodi:nodetypes="ccc" />
    <ellipse
       style="fill:#707181;stroke:#000000;stroke-width:0.2;stroke-dasharray:none;fill-opacity:1"
       id="ellipse10"
       cx="88.710785"
       cy="41.964596"
       rx="2.1894441"
       ry="2.4199114" />
    <ellipse
       style="fill:#707181;stroke:#000000;stroke-width:0.178141;stroke-dasharray:none;fill-opacity:1"
       id="path12"
       cx="118.40942"
       cy="40.388489"
       rx="2.060879"
       ry="2.7176571" />
    <ellipse
       style="fill:#707181;stroke:#000000;stroke-width:0.156767;stroke-dasharray:none;fill-opacity:1"
       id="ellipse13"
       cx="118.64162"
       cy="42.706379"
       rx="2.0507383"
       ry="2.4433448" />
    <g
       id="g49"
       transform="rotate(-86.181209,69.824129,30.757477)">
      <path
         id="rect13"
         style="fill:#a2a2ac;stroke:#000000;stroke-width:0.213128;fill-opacity:1"
         d="m 60.646795,45.060966 v 36.155442 c 0,0 0.0935,0.385154 0.129394,0.579943 0.03648,0.198013 0.08722,0.597708 0.08722,0.597708 l -1.696712,10e-7 c 0,0 0.07484,-0.419936 0.119352,-0.628472 0.04237,-0.19851 0.140574,-0.592501 0.140574,-0.592501 v -36.11212 z"
         sodipodi:nodetypes="ccaccaccc" />
      <ellipse
         style="fill:#6b6e7b;fill-opacity:1;stroke:#000000;stroke-width:0.0901222;stroke-dasharray:none"
         id="ellipse24"
         cx="58.605923"
         cy="44.982204"
         rx="0.41845831"
         ry="0.36206928" />
      <ellipse
         style="fill:#6b6e7b;fill-opacity:1;stroke:#000000;stroke-width:0.0987198;stroke-dasharray:none"
         id="ellipse26"
         cx="55.865044"
         cy="43.392967"
         rx="0.50814122"
         ry="0.35777047" />
      <ellipse
         style="fill:#6b6e7b;fill-opacity:1;stroke:#000000;stroke-width:0.0987198;stroke-dasharray:none"
         id="ellipse29"
         cx="54.729877"
         cy="40.13163"
         rx="0.50814122"
         ry="0.35777047" />
      <ellipse
         style="fill:#6b6e7b;fill-opacity:1;stroke:#000000;stroke-width:0.0901222;stroke-dasharray:none"
         id="ellipse45"
         cx="-61.770004"
         cy="45.071381"
         rx="0.41845831"
         ry="0.36206928"
         transform="scale(-1,1)" />
      <ellipse
         style="fill:#6b6e7b;fill-opacity:1;stroke:#000000;stroke-width:0.0987198;stroke-dasharray:none"
         id="ellipse46"
         cx="-64.510887"
         cy="43.482143"
         rx="0.50814122"
         ry="0.35777047"
         transform="scale(-1,1)" />
      <ellipse
         style="fill:#6b6e7b;fill-opacity:1;stroke:#000000;stroke-width:0.0987198;stroke-dasharray:none"
         id="ellipse47"
         cx="-65.735229"
         cy="40.376865"
         rx="0.50814122"
         ry="0.35777047"
         transform="scale(-1,1)" />
      <ellipse
         style="fill:#6b6e7b;fill-opacity:1;stroke:#000000;stroke-width:0.116215;stroke-dasharray:none"
         id="ellipse44"
         cx="-64.800323"
         cy="36.974583"
         rx="0.47208527"
         ry="0.53367978"
         transform="scale(-1,1)" />
      <ellipse
         style="fill:#a2a2ac;fill-opacity:1;stroke:#000000;stroke-width:0.1;stroke-dasharray:none"
         id="path48"
         cx="60.042946"
         cy="45.824673"
         rx="0.53203273"
         ry="0.16231506" />
      <ellipse
         style="fill:#6b6e7b;fill-opacity:1;stroke:#000000;stroke-width:0.14802;stroke-dasharray:none"
         id="path47"
         cx="60.068073"
         cy="45.434559"
         rx="0.79752314"
         ry="0.3280755" />
      <path
         id="path13"
         style="fill:#515266;stroke:#000000;stroke-width:0.2;fill-opacity:1"
         d="m 65.798644,39.966438 c 0,3.139681 -2.434289,5.241196 -5.57397,5.241196 -3.139681,0 -5.684895,-2.156977 -5.684895,-5.296658 0,-3.139681 2.489752,-5.185734 5.629433,-5.185734 3.13968,0 5.629432,2.101515 5.629432,5.241196 z"
         sodipodi:nodetypes="sssss" />
      <ellipse
         style="fill:#6b6e7b;fill-opacity:1;stroke:#000000;stroke-width:0.0901222;stroke-dasharray:none"
         id="ellipse25"
         cx="57.057892"
         cy="44.258392"
         rx="0.41845834"
         ry="0.36206928" />
      <path
         id="path17"
         style="fill:#2b2844;stroke:#000000;stroke-width:0.2;fill-opacity:1"
         d="m 60.372999,34.734122 c -1.097732,-0.0425 -2.125108,0.168806 -3.002873,0.595353 0,0 1.074382,0.726604 1.499195,1.207515 0.500065,0.566103 1.192776,1.926687 1.192776,1.926687 0,0 0.706364,-1.341692 1.222143,-1.884327 0.472236,-0.496824 1.666281,-1.205023 1.666281,-1.205023 -0.761361,-0.379579 -1.635929,-0.603754 -2.577522,-0.640205 z"
         sodipodi:nodetypes="scacacs" />
      <path
         style="fill:none;fill-opacity:1;stroke:#000000;stroke-width:0.202407;stroke-dasharray:none"
         d="m 60.049988,38.418805 0.04344,6.819181"
         id="path18" />
      <ellipse
         style="fill:#6b6e7b;fill-opacity:1;stroke:#000000;stroke-width:0.132081;stroke-dasharray:none"
         id="path19"
         cx="57.344635"
         cy="37.189236"
         rx="0.61369979"
         ry="0.53028315" />
      <ellipse
         style="fill:#6b6e7b;fill-opacity:1;stroke:#000000;stroke-width:0.0987198;stroke-dasharray:none"
         id="ellipse19"
         cx="57.018223"
         cy="38.61808"
         rx="0.50814122"
         ry="0.35777047" />
      <ellipse
         style="fill:#6b6e7b;fill-opacity:1;stroke:#000000;stroke-width:0.0945955;stroke-dasharray:none"
         id="ellipse20"
         cx="58.603989"
         cy="39.33947"
         rx="0.35672101"
         ry="0.46794316" />
      <ellipse
         style="fill:#6b6e7b;fill-opacity:1;stroke:#000000;stroke-width:0.138195;stroke-dasharray:none"
         id="ellipse21"
         cx="56.748272"
         cy="40.598824"
         rx="0.65957892"
         ry="0.54012543" />
      <ellipse
         style="fill:#6b6e7b;fill-opacity:1;stroke:#000000;stroke-width:0.0901222;stroke-dasharray:none"
         id="ellipse22"
         cx="56.895725"
         cy="42.582676"
         rx="0.41845834"
         ry="0.36206928" />
      <ellipse
         style="fill:#6b6e7b;fill-opacity:1;stroke:#000000;stroke-width:0.131648;stroke-dasharray:none"
         id="ellipse23"
         cx="58.856102"
         cy="41.347874"
         rx="0.65384305"
         ry="0.49446312" />
      <ellipse
         style="fill:#6b6e7b;fill-opacity:1;stroke:#000000;stroke-width:0.0987198;stroke-dasharray:none"
         id="ellipse27"
         cx="55.054211"
         cy="41.84338"
         rx="0.50814122"
         ry="0.35777047" />
      <ellipse
         style="fill:#6b6e7b;fill-opacity:1;stroke:#000000;stroke-width:0.118031;stroke-dasharray:none"
         id="ellipse28"
         cx="59.036613"
         cy="44.076378"
         rx="0.5435316"
         ry="0.47813332" />
      <ellipse
         style="fill:#6b6e7b;fill-opacity:1;stroke:#000000;stroke-width:0.138195;stroke-dasharray:none"
         id="ellipse30"
         cx="54.94643"
         cy="38.977165"
         rx="0.65957892"
         ry="0.54012543" />
      <ellipse
         style="fill:#6b6e7b;fill-opacity:1;stroke:#000000;stroke-width:0.0987198;stroke-dasharray:none"
         id="ellipse31"
         cx="55.072231"
         cy="40.455959"
         rx="0.50814122"
         ry="0.35777047" />
      <ellipse
         style="fill:#6b6e7b;fill-opacity:1;stroke:#000000;stroke-width:0.0945955;stroke-dasharray:none"
         id="ellipse32"
         cx="55.558876"
         cy="37.051128"
         rx="0.35672101"
         ry="0.46794316" />
      <ellipse
         style="fill:#6b6e7b;fill-opacity:1;stroke:#000000;stroke-width:0.0901222;stroke-dasharray:none"
         id="ellipse33"
         cx="-63.175137"
         cy="44.258392"
         rx="0.41845834"
         ry="0.36206928"
         transform="scale(-1,1)" />
      <ellipse
         style="fill:#6b6e7b;fill-opacity:1;stroke:#000000;stroke-width:0.132081;stroke-dasharray:none"
         id="ellipse34"
         cx="-62.888393"
         cy="37.189236"
         rx="0.61369979"
         ry="0.53028315"
         transform="scale(-1,1)" />
      <ellipse
         style="fill:#6b6e7b;fill-opacity:1;stroke:#000000;stroke-width:0.0987198;stroke-dasharray:none"
         id="ellipse35"
         cx="-63.214806"
         cy="38.61808"
         rx="0.50814122"
         ry="0.35777047"
         transform="scale(-1,1)" />
      <ellipse
         style="fill:#6b6e7b;fill-opacity:1;stroke:#000000;stroke-width:0.0945955;stroke-dasharray:none"
         id="ellipse36"
         cx="-61.62904"
         cy="39.33947"
         rx="0.35672101"
         ry="0.46794316"
         transform="scale(-1,1)" />
      <ellipse
         style="fill:#6b6e7b;fill-opacity:1;stroke:#000000;stroke-width:0.138195;stroke-dasharray:none"
         id="ellipse37"
         cx="-63.484756"
         cy="40.598824"
         rx="0.65957892"
         ry="0.54012543"
         transform="scale(-1,1)" />
      <ellipse
         style="fill:#6b6e7b;fill-opacity:1;stroke:#000000;stroke-width:0.0901222;stroke-dasharray:none"
         id="ellipse38"
         cx="-63.337303"
         cy="42.582676"
         rx="0.41845834"
         ry="0.36206928"
         transform="scale(-1,1)" />
      <ellipse
         style="fill:#6b6e7b;fill-opacity:1;stroke:#000000;stroke-width:0.131648;stroke-dasharray:none"
         id="ellipse39"
         cx="-61.376926"
         cy="41.347874"
         rx="0.65384305"
         ry="0.49446312"
         transform="scale(-1,1)" />
      <ellipse
         style="fill:#6b6e7b;fill-opacity:1;stroke:#000000;stroke-width:0.0987198;stroke-dasharray:none"
         id="ellipse40"
         cx="-65.178818"
         cy="41.84338"
         rx="0.50814122"
         ry="0.35777047"
         transform="scale(-1,1)" />
      <ellipse
         style="fill:#6b6e7b;fill-opacity:1;stroke:#000000;stroke-width:0.118031;stroke-dasharray:none"
         id="ellipse41"
         cx="-61.196415"
         cy="44.076378"
         rx="0.5435316"
         ry="0.47813332"
         transform="scale(-1,1)" />
      <ellipse
         style="fill:#6b6e7b;fill-opacity:1;stroke:#000000;stroke-width:0.138195;stroke-dasharray:none"
         id="ellipse42"
         cx="-65.286598"
         cy="38.977165"
         rx="0.65957892"
         ry="0.54012543"
         transform="scale(-1,1)" />
      <ellipse
         style="fill:#6b6e7b;fill-opacity:1;stroke:#000000;stroke-width:0.0987198;stroke-dasharray:none"
         id="ellipse43"
         cx="-65.160797"
         cy="40.455959"
         rx="0.50814122"
         ry="0.35777047"
         transform="scale(-1,1)" />
      <path
         style="fill:#474458;fill-opacity:1;stroke:#000000;stroke-width:0.0862984;stroke-dasharray:none"
         d="m 59.100826,82.385455 h 1.836714 c 0,0 0.266508,0.61468 -0.912275,0.615619 -1.178781,9.59e-4 -0.924439,-0.615619 -0.924439,-0.615619 z"
         id="path49"
         sodipodi:nodetypes="cczc" />
    </g>
    <ellipse
       style="fill:#707181;fill-opacity:1;stroke:#000000;stroke-width:0.121268;stroke-dasharray:none"
       id="path50"
       cx="118.94569"
       cy="42.926403"
       rx="1.8143028"
       ry="1.6328726" />
    <ellipse
       style="fill:#707181;fill-opacity:1;stroke:#000000;stroke-width:0.2;stroke-dasharray:none"
       id="path51"
       cx="89.083107"
       cy="42.215816"
       rx="1.7405245"
       ry="1.6735814" />
    <path
       style="fill:none;fill-opacity:1;stroke:#000000;stroke-width:0.2;stroke-dasharray:none"
       d="m 91.977741,32.152873 c 0,0 2.770618,2.086517 3.557338,6.977859"
       id="path53" />
    <path
       style="fill:none;fill-opacity:1;stroke:#000000;stroke-width:0.2;stroke-dasharray:none"
       d="m 113.76763,31.759745 c 0.089,0.137391 0.26701,3.923802 -1.55363,5.023189"
       id="path54"
       sodipodi:nodetypes="cc" />
    <path
       style="fill:#777777;fill-opacity:1;stroke:#000000;stroke-width:0.2;stroke-dasharray:none"
       d="m 90.005235,37.058806 c 0,0 1.10844,2.844993 1.071491,4.285964"
       id="path57" />
    <path
       style="fill:#000000;fill-opacity:0;stroke:#000000;stroke-width:0.2;stroke-dasharray:none"
       d="m 87.376552,42.704818 c 0,0 2.156044,-0.605205 3.290805,0.264777"
       id="path58" />
    <path
       style="fill:#777777;fill-opacity:1;stroke:#000000;stroke-width:0.2;stroke-dasharray:none"
       d="m 88.461373,39.559129 c 0,0 0.347879,0.472125 0.347879,1.043646"
       id="path59" />
    <path
       style="fill:#777777;fill-opacity:1;stroke:#000000;stroke-width:0.2;stroke-dasharray:none"
       d="m 87.267968,38.917136 c 0.0221,-0.01964 0.504458,0.364152 0.622385,0.894675"
       id="path60"
       sodipodi:nodetypes="cc" />
    <path
       style="fill:none;fill-opacity:1;stroke:#000000;stroke-width:0.2;stroke-dasharray:none"
       d="m 117.06039,35.067281 c 0.0673,0.0096 0.55,3.292446 -1.90233,4.190637"
       id="path61"
       sodipodi:nodetypes="cc" />
    <path
       style="fill:none;fill-opacity:1;stroke:#000000;stroke-width:0.2;stroke-dasharray:none"
       d="m 116.34897,40.766237 c 0.99967,-1.726007 2.17005,-2.777295 3.94783,-1.42794"
       id="path62"
       sodipodi:nodetypes="cc" />
    <path
       style="fill:none;fill-opacity:1;stroke:#000000;stroke-width:0.2;stroke-dasharray:none"
       d="m 117.20102,42.400487 c 0,0 1.26989,1.216988 3.47458,0.158739"
       id="path63" />
    <path
       style="fill:none;fill-opacity:1;stroke:#000000;stroke-width:0.2;stroke-dasharray:none"
       d="m 109.45133,57.69634 0.75555,-0.927264 1.03029,0.549489"
       id="path64" />
    <path
       style="fill:none;fill-opacity:1;stroke:#000000;stroke-width:0.2;stroke-dasharray:none"
       d="m 92.72626,57.93674 0.618175,-0.549489 0.446458,0.721204 0.755547,0.03434"
       id="path65" />
    <path
       style="fill:none;fill-opacity:1;stroke:#000000;stroke-width:0.2;stroke-dasharray:none"
       d="m 96.933974,57.474722 7.864966,-4.436647 5.78108,1.882214"
       id="path66"
       inkscape:path-effect="#path-effect17"
       inkscape:original-d="m 96.933974,57.474722 7.864966,-4.436647 5.78108,1.882214" />
    <path
       style="fill:none;fill-opacity:1;stroke:#000000;stroke-width:0.2;stroke-dasharray:none"
       d="m 104.80036,52.988015 c 0.0862,0.547059 0.52163,2.41575 -1.21,5.310529"
       id="path67"
       sodipodi:nodetypes="cc" />
    <path
       style="fill:none;fill-opacity:1;stroke:#000000;stroke-width:0.2;stroke-dasharray:none"
       d="m 91.663471,54.220239 12.964049,-8.159726 9.15804,4.388372"
       id="path72"
       sodipodi:nodetypes="ccc" />
    <path
       style="fill:#707181;fill-opacity:1;stroke:#000000;stroke-width:0.0182963"
       d="m 383.82311,220.269 c -5.25497,-0.13381 -10.68228,-1.09945 -15.98708,-2.84445 -0.32616,-0.10729 -0.6002,-0.20188 -0.60898,-0.2102 -0.009,-0.008 6.42102,-3.64593 14.28845,-8.08358 7.86743,-4.43765 14.30824,-8.06463 14.31291,-8.05996 0.0337,0.0337 0.18835,1.29642 0.24558,2.00508 0.0499,0.61778 0.0571,2.24178 0.0127,2.84403 -0.27136,3.67667 -1.2782,7.17917 -3.1728,11.03726 -0.50081,1.01983 -1.42056,2.7194 -1.5105,2.79119 -0.0156,0.0125 -0.30075,0.0618 -0.63357,0.10947 -2.35206,0.33723 -4.60753,0.47073 -6.94669,0.41116 z"
       id="path8"
       transform="scale(0.26458333)" />
    <path
       style="fill:#707181;fill-opacity:1;stroke:#000000;stroke-width:0.0182963"
       d="m 392.42781,219.57602 c 0,-0.004 0.132,-0.24639 0.29333,-0.53855 1.94949,-3.53049 3.28525,-7.19065 3.84476,-10.53514 0.24401,-1.45857 0.32693,-2.45958 0.32622,-3.93787 -6e-4,-1.26376 -0.0466,-1.95371 -0.20339,-3.04976 -0.0362,-0.25294 -0.0646,-0.46192 -0.0631,-0.4644 0.006,-0.0107 20.78047,6.75893 20.78085,6.77175 5.8e-4,0.0193 -1.14172,0.92588 -1.69389,1.34436 -4.30609,3.26352 -9.24918,5.99015 -14.35328,7.91733 -2.76914,1.04555 -5.67309,1.87712 -8.38638,2.40149 -0.50934,0.0984 -0.54509,0.10439 -0.54509,0.0908 z"
       id="path14"
       transform="scale(0.26458333)" />
    <path
       style="fill:none;fill-opacity:1;stroke:#e0e0e1;stroke-width:0.2;stroke-dasharray:none;stroke-opacity:1"
       d="M 113.87199,50.268523 104.6144,45.832451 91.556935,54.050976"
       id="path15"
       sodipodi:nodetypes="ccc" />
    <path
       style="fill:none;fill-opacity:1;stroke:#e0e0e1;stroke-width:0.2;stroke-dasharray:none;stroke-opacity:1"
       d="m 110.64194,54.730115 -5.86469,-1.909434 -7.94154,4.479845"
       id="path20"
       inkscape:path-effect="#path-effect21"
       inkscape:original-d="m 96.933974,57.474722 7.864966,-4.436647 5.78108,1.882214" />
    <path
       style="fill:#a0a2a6;fill-opacity:1;stroke:none;stroke-width:0.2;stroke-opacity:1"
       d="m 104.16471,20.173517 c 0.7222,0.825876 1.28576,1.899849 1.76451,2.909846 0.0829,0.174818 1.05772,2.138752 1.32501,3.290595 0.42105,1.814426 0.59764,3.692112 0.40887,5.572936 l 0.0408,-0.0024 c 0,0 0.19132,-1.298792 0.2158,-1.953444 0.0298,-0.797386 0.0259,-1.60206 -0.0844,-2.392341 -0.10999,-0.787996 -0.29248,-1.572469 -0.57226,-2.317288 -0.38118,-1.014734 -0.94541,-1.953337 -1.4917,-2.889575 -0.39512,-0.677162 -1.28866,-1.967584 -1.28866,-1.967584 l -0.45734,-0.676505 z"
       id="path23"
       sodipodi:nodetypes="csaccaaaaccc" />
    <path
       style="fill:#a0a2a6;fill-opacity:1;stroke:none;stroke-width:0.2;stroke-opacity:1"
       d="m 108.01692,31.051904 -0.0364,0.418883 c 0,0 1.93823,-0.38198 2.89575,-0.236761 1.06107,0.160923 2.53716,1.073509 2.98681,1.202011 l -0.1275,-0.03644 v -0.50994 c 0,0 -1.51162,-1.019886 -2.73184,-1.165584 -1.22022,-0.145698 -2.98681,0.32782 -2.98681,0.32782 z"
       id="path27"
       sodipodi:nodetypes="ccasccscc" />
    <path
       style="fill:#a0a2a6;fill-opacity:1;stroke:none;stroke-width:0.2;stroke-opacity:1"
       d="m 113.87037,32.421069 c 0.28047,0.295139 0.61007,1.142502 0.72191,1.769702 0.11813,0.66243 -0.0397,1.364979 -0.0694,2.017446 0,0 0.32637,-0.728508 0.38621,-1.118317 0.0509,-0.331432 0.0269,-0.674773 -0.028,-1.005556 -0.0541,-0.326021 -0.16452,-0.642835 -0.29427,-0.946787 -0.10717,-0.251063 -0.23663,-0.495312 -0.39663,-0.716487 -0.092,-0.127149 -0.31986,-0.34545 -0.31986,-0.34545 z"
       id="path28"
       sodipodi:nodetypes="cacaaaacc" />
    <path
       style="fill:#a0a2a6;fill-opacity:1;stroke:none;stroke-width:0.2;stroke-opacity:1"
       d="m 97.247272,31.36537 0.129559,0.167171 -0.881825,0.313444 c 0,0 -0.23404,-0.100303 -0.284191,-0.112839 -0.05015,-0.01254 0.04179,-0.05433 0.04179,-0.05433 z"
       id="path29" />
    <path
       style="fill:#a0a2a6;fill-opacity:1;stroke:none;stroke-width:0.00568976;stroke-opacity:1"
       d="m 442.27216,134.27053 c -0.0684,-0.0574 -0.24134,-0.19047 -0.35754,-0.27509 -0.77648,-0.56544 -1.8307,-1.14044 -3.10975,-1.69613 -1.15967,-0.50383 -2.5756,-1.01648 -3.87604,-1.40337 l -0.0534,-0.0159 -0.0131,-0.16712 c -0.007,-0.0919 -0.0213,-0.24671 -0.0313,-0.344 -0.01,-0.0973 -0.0182,-0.18389 -0.0182,-0.19246 -2e-5,-0.009 0.031,-0.0523 0.0705,-0.0992 l 0.0705,-0.0836 0.46953,0.15668 c 2.02057,0.67423 3.92708,1.431 5.54654,2.20162 0.33017,0.15711 1.12399,0.55965 1.18067,0.5987 0.0183,0.0126 0.0247,0.0406 0.0568,0.24839 0.027,0.17487 0.0538,0.39342 0.0758,0.61722 0.0182,0.18549 0.0426,0.49101 0.0394,0.49386 -8.5e-4,7.6e-4 -0.0236,-0.0171 -0.0505,-0.0397 z"
       id="path32"
       transform="scale(0.26458333)" />
    <path
       style="fill:#a0a2a6;fill-opacity:1;stroke:none;stroke-width:0.0171139;stroke-opacity:1"
       d="m 448.89121,142.17913 c -0.0984,-0.0217 -0.29703,-0.0562 -0.44149,-0.0766 -0.14446,-0.0204 -0.29503,-0.042 -0.33461,-0.0479 -0.0689,-0.0104 -0.0751,-0.0203 -0.14424,-0.23088 -0.12983,-0.39518 -0.43121,-1.18474 -0.61546,-1.6124 -0.89,-2.06578 -2.00594,-3.71121 -3.29585,-4.85965 -0.23776,-0.21169 -0.68813,-0.55763 -0.84774,-0.65116 l -0.10117,-0.0593 -0.0163,-0.311 c -0.009,-0.17105 -0.0291,-0.43327 -0.0448,-0.58269 -0.0157,-0.14943 -0.0254,-0.27553 -0.0217,-0.28024 0.01,-0.0126 0.31038,0.17585 0.72168,0.45269 1.0558,0.71066 1.67948,1.35358 2.46824,2.54438 0.86315,1.30314 1.71155,2.96829 2.62895,5.15983 0.12982,0.31012 0.23316,0.57075 0.22966,0.57918 -0.004,0.008 -0.0869,-0.002 -0.18521,-0.0242 z"
       id="path34"
       transform="scale(0.26458333)" />
    <path
       style="fill:#a0a2a6;fill-opacity:1;stroke:none;stroke-width:0.0102893;stroke-dasharray:none;stroke-opacity:1"
       d="m 453.49224,146.89285 c -0.78118,-1.04754 -1.73578,-1.95974 -2.62905,-2.5123 -1.94461,-1.20288 -4.05674,-1.24042 -6.24552,-0.111 -0.85598,0.44169 -1.64639,1.01738 -2.50168,1.82207 -0.19384,0.18238 -0.34406,0.30954 -0.33382,0.28259 0.0348,-0.0916 0.45026,-0.68492 0.69008,-0.9855 0.28354,-0.35539 0.88356,-0.96233 1.20765,-1.22159 0.77888,-0.62309 1.75117,-1.10576 2.61348,-1.29741 1.01377,-0.22531 2.01946,-0.17419 3.02184,0.15361 1.40804,0.46046 2.75009,1.5327 3.72727,2.97792 0.31241,0.46205 0.67889,1.10213 0.64845,1.13257 -0.006,0.006 -0.0954,-0.10244 -0.1987,-0.24096 z"
       id="path36"
       transform="scale(0.26458333)" />
    <path
       style="fill:#a0a2a6;fill-opacity:1;stroke:none;stroke-width:0.0109544;stroke-dasharray:none;stroke-opacity:1"
       d="m 441.46315,158.22478 c 0,-0.0845 0.30943,-0.85998 0.50449,-1.26429 0.45481,-0.94271 0.95198,-1.65189 1.66331,-2.37261 0.94682,-0.95933 2.06291,-1.6113 3.27914,-1.91553 2.5302,-0.6329 5.1666,0.37911 6.94279,2.66506 0.1967,0.25315 0.47897,0.66186 0.47897,0.69351 0,0.0109 -0.17281,-0.13694 -0.38403,-0.3286 -1.43218,-1.29956 -2.7374,-1.99843 -4.20986,-2.25414 -0.22003,-0.0382 -0.45039,-0.0501 -0.95646,-0.0493 -0.60305,9.2e-4 -0.70486,0.008 -1.06758,0.0792 -1.40629,0.27406 -2.7314,0.99337 -4.04664,2.19661 -0.64377,0.58896 -1.47058,1.5367 -1.95621,2.24233 -0.23412,0.34018 -0.24792,0.35732 -0.24792,0.30783 z"
       id="path38"
       transform="scale(0.26458333)" />
    <path
       style="fill:#a0a2a6;fill-opacity:1;stroke:none;stroke-width:0.0122297;stroke-dasharray:none;stroke-opacity:1"
       d="m 443.72339,159.45031 c 0.0128,-0.0223 0.11393,-0.1715 0.2248,-0.33167 0.99758,-1.44122 2.62492,-2.42028 4.52855,-2.72453 0.44731,-0.0715 1.63434,-0.0798 2.07088,-0.0145 1.57126,0.23503 2.92808,0.90163 3.966,1.94848 0.33245,0.33531 0.93627,1.13031 0.8585,1.13031 -0.01,0 -0.10951,-0.0557 -0.22105,-0.12371 -2.29048,-1.39726 -5.15361,-1.72634 -8.30839,-0.95496 -0.9015,0.22043 -1.91746,0.57012 -2.74521,0.9449 -0.4029,0.18242 -0.40755,0.18398 -0.37408,0.12569 z"
       id="path40"
       transform="scale(0.26458333)" />
    <path
       style="fill:#a0a2a6;fill-opacity:1;stroke:none;stroke-width:0.0101643;stroke-dasharray:none;stroke-opacity:1"
       d="m 335.15551,145.79725 c -0.14052,-0.0202 -0.48982,-0.0458 -0.77623,-0.0568 l -0.52074,-0.0201 3.03253,-2.51451 c 1.66788,-1.38297 3.04607,-2.52262 3.06264,-2.53253 0.0197,-0.0118 0.0969,0.1643 0.22385,0.51097 0.18284,0.49928 0.19112,0.53152 0.1474,0.57391 -0.0255,0.0247 -1.11733,0.9534 -2.42635,2.06377 -1.54713,1.31234 -2.39887,2.01765 -2.43383,2.01543 -0.0296,-0.002 -0.16875,-0.02 -0.30927,-0.0402 z"
       id="path42"
       transform="scale(0.26458333)" />
    <path
       style="fill:#a0a2a6;fill-opacity:1;stroke:none;stroke-width:0.00832345;stroke-dasharray:none;stroke-opacity:1"
       d="m 340.79773,149.69678 c -0.51702,-0.40083 -1.3457,-0.90979 -2.02606,-1.24437 -1.13753,-0.55939 -2.14289,-0.86278 -3.3254,-1.00348 -0.46008,-0.0547 -1.45739,-0.055 -1.90494,-5.6e-4 -0.42126,0.0513 -0.75893,0.10981 -1.11056,0.19249 -0.29368,0.0691 -0.97748,0.26855 -1.04573,0.30507 -0.0303,0.0162 -0.0555,-0.003 -0.12799,-0.0953 -0.0496,-0.0636 -0.21068,-0.24089 -0.35789,-0.39409 l -0.26764,-0.27855 0.084,-0.0352 c 0.62872,-0.2637 1.46488,-0.48578 2.21644,-0.58869 0.30712,-0.0421 0.45606,-0.0488 1.08284,-0.0491 0.46648,-2.5e-4 0.80956,0.01 0.95798,0.0283 1.77133,0.21977 3.2771,0.86034 4.71281,2.00487 0.42003,0.33485 1.37473,1.28599 1.28431,1.27953 -0.01,-7.1e-4 -0.0874,-0.0551 -0.17218,-0.1208 z"
       id="path44"
       transform="scale(0.26458333)" />
    <path
       style="fill:#a0a2a6;fill-opacity:1;stroke:none;stroke-width:0.00832345;stroke-dasharray:none;stroke-opacity:1"
       d="m 325.5692,152.14296 c 0,-0.0105 0.0731,-0.15878 0.16249,-0.32951 0.57494,-1.09833 1.27881,-2.02914 2.14698,-2.8392 0.55055,-0.5137 1.23197,-1.01444 1.81863,-1.33642 l 0.16022,-0.0879 0.18471,0.16149 c 0.1016,0.0888 0.26532,0.24903 0.36383,0.35602 l 0.17911,0.19452 -0.38832,0.19166 c -1.16858,0.57674 -2.23666,1.32982 -3.33469,2.35119 -0.33292,0.30968 -0.90991,0.90887 -1.16066,1.20532 -0.12448,0.14717 -0.1323,0.15503 -0.1323,0.13286 z"
       id="path45"
       transform="scale(0.26458333)" />
    <path
       style="fill:#a0a2a6;fill-opacity:1;stroke:none;stroke-width:0.0107455;stroke-dasharray:none;stroke-opacity:1"
       d="m 340.75751,152.3854 c -0.19591,-0.17078 -0.93074,-0.63935 -1.29363,-0.82489 -1.10664,-0.56582 -2.20673,-0.82946 -3.47595,-0.83302 -0.52214,-10e-4 -0.54842,-0.004 -0.56507,-0.0584 -0.01,-0.0313 -0.099,-0.22032 -0.19871,-0.42012 -0.0997,-0.19979 -0.18123,-0.37114 -0.18123,-0.38078 0,-0.0317 1.00292,0.0152 1.2936,0.0605 1.47214,0.22913 2.84593,0.90468 4.00453,1.96922 0.38083,0.3499 0.7373,0.76721 0.41646,0.48753 z"
       id="path68"
       transform="scale(0.26458333)" />
    <path
       style="fill:#a0a2a6;fill-opacity:1;stroke:none;stroke-width:0.0107455;stroke-dasharray:none;stroke-opacity:1"
       d="m 329.2146,153.03129 c 0,-0.0398 0.48137,-0.59558 0.76183,-0.87963 0.87971,-0.89094 1.92456,-1.55376 3.02019,-1.91591 0.37127,-0.12272 1.02623,-0.29164 1.13077,-0.29164 0.0165,0 0.0744,0.0736 0.12865,0.16348 0.12765,0.21164 0.37081,0.68902 0.35693,0.70073 -0.006,0.005 -0.13227,0.0306 -0.28082,0.0569 -1.50103,0.26595 -3.17019,0.94998 -4.70117,1.92657 -0.38509,0.24565 -0.41638,0.26365 -0.41638,0.23949 z"
       id="path69"
       transform="scale(0.26458333)" />
    <path
       style="fill:#a0a2a6;fill-opacity:1;stroke:none;stroke-width:0.021512;stroke-dasharray:none;stroke-opacity:1"
       d="m 331.69423,156.09078 c 0.27698,-0.38569 1.04154,-1.09671 1.52195,-1.41537 0.50182,-0.33287 1.25553,-0.66733 1.86716,-0.82857 2.04919,-0.54018 4.31224,0.009 5.83705,1.41684 0.34295,0.31662 0.96837,1.03411 0.93258,1.0699 -0.0102,0.0102 -0.25479,-0.12378 -0.54346,-0.29781 -0.91508,-0.55166 -1.83594,-0.91419 -2.90981,-1.14557 -0.73962,-0.15936 -2.49211,-0.14379 -3.29166,0.0293 -1.08112,0.23396 -2.2337,0.67586 -3.13355,1.2014 -0.21719,0.12685 -0.41122,0.23063 -0.43118,0.23063 -0.02,0 0.0479,-0.11731 0.15092,-0.2607 z"
       id="path71"
       transform="scale(0.26458333)" />
    <path
       style="fill:#444469;fill-opacity:1;stroke:none;stroke-width:0.0273244;stroke-dasharray:none;stroke-opacity:1"
       d="m 356.54089,214.94326 c -2.03977,-1.02624 -3.74532,-1.90254 -3.79012,-1.94734 -0.0604,-0.0604 -0.0194,-0.28271 0.1589,-0.86042 0.1322,-0.42844 0.26091,-0.81913 0.28602,-0.86821 0.0314,-0.0613 0.26691,0.0587 0.75179,0.38296 1.72929,1.1564 4.6556,2.80158 6.65826,3.74327 l 0.98675,0.46399 -0.57858,0.47867 c -0.31822,0.26327 -0.62038,0.47739 -0.67147,0.47581 -0.0511,-0.002 -1.76178,-0.8425 -3.80155,-1.86873 z"
       id="path75"
       transform="scale(0.26458333)" />
    <path
       style="fill:#444469;fill-opacity:1;stroke:none;stroke-width:0.0111665;stroke-dasharray:none;stroke-opacity:1"
       d="m 409.91739,214.46178 c -0.20312,-0.16443 -0.37305,-0.30237 -0.37763,-0.30654 -0.005,-0.004 0.30628,-0.18959 0.69081,-0.41206 2.39593,-1.3862 4.74556,-2.97541 6.7874,-4.59075 0.19228,-0.15213 0.35459,-0.27162 0.36067,-0.26553 0.006,0.006 0.079,0.22776 0.16199,0.49262 0.083,0.26486 0.15745,0.49858 0.16543,0.51936 0.009,0.0243 -1.30237,0.8958 -3.66626,2.43598 -2.02441,1.31899 -3.69703,2.40441 -3.71693,2.41203 -0.0199,0.008 -0.20236,-0.12068 -0.40548,-0.28511 z"
       id="path77"
       transform="scale(0.26458333)" />
    <path
       style="fill:#696d7a;fill-opacity:1;stroke:none;stroke-width:0.00745143;stroke-dasharray:none;stroke-opacity:1"
       d="m 74.161573,37.761574 c 5.36e-4,-0.02558 0.234851,-0.346038 0.397758,-0.544125 0.319403,-0.388377 0.807374,-0.8069 1.250036,-1.072131 0.250781,-0.150261 0.393746,-0.221954 0.657348,-0.329639 0.193416,-0.07902 0.674729,-0.235562 0.684928,-0.222773 0.0024,0.0029 -0.0011,0.07043 -0.0077,0.149899 l -0.01205,0.144479 -0.231568,0.08536 c -0.846787,0.31215 -1.709776,0.867679 -2.580185,1.660932 -0.08742,0.07967 -0.158759,0.137266 -0.158542,0.127997 z"
       id="path79" />
    <path
       style="fill:#696d7a;fill-opacity:1;stroke:none;stroke-width:0.00787151;stroke-dasharray:none;stroke-opacity:1"
       d="m 78.295097,35.579408 c -0.01378,-0.04491 -0.03059,-0.08956 -0.03736,-0.09924 -0.01371,-0.0196 0.801235,-0.0039 0.838344,0.01609 0.01268,0.0069 -0.01898,0.04591 -0.07161,0.0883 l -0.09436,0.07601 -0.30498,2.44e-4 -0.304979,2.46e-4 z"
       id="path80" />
    <path
       style="fill:#696d7a;fill-opacity:1;stroke:none;stroke-width:0.00754827;stroke-dasharray:none;stroke-opacity:1"
       d="m 80.024923,35.91671 c -0.07887,-0.0299 -0.218934,-0.07467 -0.31125,-0.09949 -0.13572,-0.0365 -0.170027,-0.0534 -0.179247,-0.08832 -0.0063,-0.02373 -0.03527,-0.07014 -0.06445,-0.103087 -0.02918,-0.03295 -0.04531,-0.0599 -0.03586,-0.05988 0.04156,6.1e-5 0.44442,0.09968 0.623224,0.154117 l 0.196162,0.05972 -0.03234,0.09724 c -0.01779,0.05348 -0.03695,0.09652 -0.04259,0.09565 -0.0056,-7.94e-4 -0.07477,-0.02606 -0.153645,-0.05594 z"
       id="path81" />
    <path
       style="fill:#696d7a;fill-opacity:1;stroke:none;stroke-width:0.00753477;stroke-dasharray:none;stroke-opacity:1"
       d="m 82.435591,37.780937 c -0.180773,-0.225944 -0.538457,-0.604117 -0.786882,-0.831954 -0.167565,-0.153674 -0.595778,-0.490937 -0.689098,-0.542731 -0.03104,-0.01724 -0.03163,-0.03049 -0.0068,-0.152284 l 0.02717,-0.133415 0.239365,0.158045 c 0.566066,0.373743 0.993057,0.789797 1.371366,1.33623 0.06556,0.09469 0.12398,0.184536 0.12983,0.199656 0.0063,0.01616 -0.02056,0.05203 -0.06508,0.08705 l -0.07573,0.05957 z"
       id="path82" />
  </g>
</svg>
