<?xml version="1.0" encoding="UTF-8" standalone="no"?>
<!-- Created with Inkscape (http://www.inkscape.org/) -->

<svg
   width="210mm"
   height="297mm"
   viewBox="0 0 210 297"
   version="1.1"
   id="svg1"
   inkscape:version="1.3.2 (091e20e, 2023-11-25)"
   sodipodi:docname="hollow-knight-character.svg"
   xmlns:inkscape="http://www.inkscape.org/namespaces/inkscape"
   xmlns:sodipodi="http://sodipodi.sourceforge.net/DTD/sodipodi-0.dtd"
   xmlns="http://www.w3.org/2000/svg"
   xmlns:svg="http://www.w3.org/2000/svg">
  <sodipodi:namedview
     id="namedview1"
     pagecolor="#ffffff"
     bordercolor="#000000"
     borderopacity="0.25"
     inkscape:showpageshadow="2"
     inkscape:pageopacity="0.0"
     inkscape:pagecheckerboard="0"
     inkscape:deskcolor="#d1d1d1"
     inkscape:document-units="mm"
     inkscape:zoom="1.7973108"
     inkscape:cx="161.63037"
     inkscape:cy="277.08063"
     inkscape:window-width="1920"
     inkscape:window-height="1027"
     inkscape:window-x="0"
     inkscape:window-y="25"
     inkscape:window-maximized="1"
     inkscape:current-layer="layer1" />
  <defs
     id="defs1" />
  <g
     inkscape:label="Layer 1"
     inkscape:groupmode="layer"
     id="layer1">
    <path
       style="fill:#000000;fill-opacity:1;stroke:none;stroke-width:1.87794;stroke-dasharray:none;stroke-opacity:1"
       d="m 50.492811,104.75544 c 0,0 0.384549,6.07704 3.358345,5.61337 2.379799,-0.37105 0.647167,-6.09635 2.86862,-6.30236 2.221453,-0.20601 -0.288094,6.54599 3.014725,6.0044 2.865761,-0.46992 3.778333,-17.579602 3.778333,-17.579602 L 48.36998,92.629046 Z"
       id="path13"
       sodipodi:nodetypes="cszsccc"
       inkscape:export-filename="../preview/hollow-knight-character.png"
       inkscape:export-xdpi="200"
       inkscape:export-ydpi="200" />
    <path
       id="rect10"
       style="fill:#a7a7a7;fill-opacity:1;stroke:#000000;stroke-width:1.07788;stroke-dasharray:none;stroke-opacity:1"
       d="m 40.143313,81.059955 3.400375,2.474485 -1.307785,1.797132 8.544399,6.217837 4.038596,-5.549742 -8.544398,-6.217837 -1.115313,1.53263 -3.400375,-2.474482 z" />
    <path
       id="rect2"
       style="fill:#d1d1d1;fill-opacity:1;stroke:#000000;stroke-width:1.465;stroke-dasharray:none;stroke-opacity:1"
       transform="scale(1,-1)"
       d="m 47.019619,-102.71444 c 0,0 6.349514,1.66621 9.099319,3.368979 2.663495,1.649323 6.84919,6.435746 6.84919,6.435746 l -0.409731,-8.606365 c 0,0 3.08219,3.008017 3.595066,4.994001 0.76811,2.974318 -0.08638,6.247548 -1.089414,9.151078 -0.912244,2.640722 -1.939052,5.761142 -4.357656,7.159697 -2.567061,1.4844 -6.325321,1.700603 -8.893353,0.217883 -2.891163,-1.669288 -3.968983,-5.558753 -4.793421,-8.793818 -1.146447,-4.498615 0,-13.927201 0,-13.927201 z"
       sodipodi:nodetypes="caccaaaaac" />
    <path
       id="rect1"
       style="fill:#ffffff;stroke:#000000;stroke-width:1.565"
       d="m 51.010213,54.480297 h 11.104263 c 4.613822,0 8.328199,3.714377 8.328199,8.328199 v 9.195716 c 0,4.613822 -3.714377,8.328199 -8.328199,8.328199 H 51.010213 c -2.53136,0 -4.214475,-1.422672 -5.709855,-3.075532 -1.230198,-1.359751 -1.97612,-2.998297 -2.400462,-4.70796 -0.581001,-2.340838 -0.414341,-4.842321 -0.10894,-7.234771 0.33361,-2.613437 1.0853,-6.228539 2.10051,-7.619712 1.332251,-1.825624 3.500271,-3.214139 6.118747,-3.214139 z"
       sodipodi:nodetypes="sssssssaass" />
    <path
       id="rect5"
       style="fill:#ffffff;stroke:#000000;stroke-width:1.065"
       d="m 48.70022,60.279643 c 0,0 -1.854633,-2.308112 -2.315429,-4.715703 -0.386231,-2.018002 -0.208551,-4.14208 -0.115991,-5.440492 0.09114,-1.278493 0.543782,-2.761717 1.785087,-4.864056 1.257814,-2.1303 2.624051,-3.388186 2.624051,-3.388186 l -0.766005,3.584604 1.173969,-0.758299 c 0,0 -1.290107,4.622643 -1.101231,6.96582 0.120948,1.500468 1.410546,4.290066 1.410546,4.290066"
       sodipodi:nodetypes="cssscccac" />
    <path
       id="path8"
       style="fill:#ffffff;stroke:#000000;stroke-width:1.065"
       d="m 66.193523,57.25127 c 0,0 0.433153,-0.02138 0.893949,-2.428973 0.386231,-2.018002 0.208551,-4.14208 0.115991,-5.440492 -0.09114,-1.278493 -0.543782,-2.761717 -1.785087,-4.864056 -1.257814,-2.1303 -2.624051,-3.388186 -2.624051,-3.388186 l 0.766005,3.584604 -1.173969,-0.758299 c 0,0 1.290107,4.622643 1.101231,6.96582 -0.120948,1.500468 -1.410546,4.290066 -1.410546,4.290066"
       sodipodi:nodetypes="cssscccac" />
    <ellipse
       style="fill:#000000;fill-opacity:1;stroke:#000000;stroke-width:1.065;stroke-dasharray:none;stroke-opacity:1"
       id="path9"
       cx="60.443836"
       cy="70.67231"
       rx="2.5957475"
       ry="3.4918983" />
    <ellipse
       style="fill:#000000;fill-opacity:1;stroke:#000000;stroke-width:0.880807;stroke-dasharray:none;stroke-opacity:1"
       id="ellipse10"
       cx="68.632805"
       cy="70.425095"
       rx="1.7298898"
       ry="3.5839951" />
    <path
       style="fill:#000000;fill-opacity:1;stroke:#000000;stroke-width:1;stroke-dasharray:none;stroke-opacity:1"
       d="M 57.085293,80.289809 66.672134,95.21478"
       id="path14" />
    <path
       style="fill:#000000;fill-opacity:1;stroke:#000000;stroke-width:1;stroke-dasharray:none;stroke-opacity:1"
       d="m 54.688581,80.507691 c 0,0 -2.893671,2.363466 -4.084515,3.788307 -1.361066,1.628511 -3.432441,5.36277 -3.432441,5.36277"
       id="path15"
       sodipodi:nodetypes="cac" />
    <path
       style="fill:none;fill-opacity:1;stroke:#000000;stroke-width:1;stroke-dasharray:none;stroke-opacity:1"
       d="m 57.629998,81.161341 c 0,0 -2.208434,5.401992 -4.030831,7.625896 -1.93039,2.355691 -7.081192,5.773895 -7.081192,5.773895"
       id="path16"
       sodipodi:nodetypes="cac" />
    <path
       style="fill:none;fill-opacity:1;stroke:#000000;stroke-width:1;stroke-dasharray:none;stroke-opacity:1"
       d="m 61.225064,86.608411 c 0,0 -3.965327,5.481594 -6.536483,7.625897 -2.324603,1.938682 -7.84378,4.575538 -7.84378,4.575538"
       id="path17"
       sodipodi:nodetypes="cac" />
  </g>
</svg>
