<?xml version="1.0" encoding="UTF-8" standalone="no"?>
<!-- Created with Inkscape (http://www.inkscape.org/) -->

<svg
   width="210mm"
   height="297mm"
   viewBox="0 0 210 297"
   version="1.1"
   id="svg1"
   inkscape:version="1.3.2 (091e20e, 2023-11-25)"
   sodipodi:docname="hollow-knight-character.svg"
   xmlns:inkscape="http://www.inkscape.org/namespaces/inkscape"
   xmlns:sodipodi="http://sodipodi.sourceforge.net/DTD/sodipodi-0.dtd"
   xmlns="http://www.w3.org/2000/svg"
   xmlns:svg="http://www.w3.org/2000/svg">
  <sodipodi:namedview
     id="namedview1"
     pagecolor="#ffffff"
     bordercolor="#000000"
     borderopacity="0.25"
     inkscape:showpageshadow="2"
     inkscape:pageopacity="0.0"
     inkscape:pagecheckerboard="0"
     inkscape:deskcolor="#d1d1d1"
     inkscape:document-units="mm"
     inkscape:zoom="2.5895613"
     inkscape:cx="349.48005"
     inkscape:cy="241.35362"
     inkscape:window-width="1920"
     inkscape:window-height="1027"
     inkscape:window-x="0"
     inkscape:window-y="25"
     inkscape:window-maximized="1"
     inkscape:current-layer="layer1" />
  <defs
     id="defs1" />
  <g
     inkscape:label="Layer 1"
     inkscape:groupmode="layer"
     id="layer1"
     style="display:inline;opacity:1">
    <path
       style="fill:#000000;fill-opacity:1;stroke:none;stroke-width:1.87794;stroke-dasharray:none;stroke-opacity:1"
       d="m 90.269766,92.969676 c 0,0 0.38455,6.07704 3.35834,5.61337 2.3798,-0.37105 0.64717,-6.09635 2.86862,-6.30236 2.22146,-0.20601 -0.28809,6.54599 3.01473,6.0044 2.865764,-0.46992 3.778334,-17.579602 3.778334,-17.579602 l -15.142854,0.137798 z"
       id="path13"
       sodipodi:nodetypes="cszsccc"
       inkscape:export-filename="../preview/hollow-knight-character.png"
       inkscape:export-xdpi="200"
       inkscape:export-ydpi="200"
       inkscape:label="body" />
    <path
       id="rect10"
       style="fill:#a7a7a7;fill-opacity:1;stroke:#000000;stroke-width:1.07788;stroke-dasharray:none;stroke-opacity:1"
       d="m 79.920267,69.274191 3.400375,2.474485 -1.307785,1.797132 8.544399,6.217837 4.0386,-5.549742 -8.544402,-6.217837 -1.115313,1.53263 -3.400375,-2.474482 z"
       inkscape:label="sword" />
    <g
       id="g2"
       inkscape:label="cape">
      <path
         id="rect2"
         style="display:inline;fill:#d1d1d1;fill-opacity:1;stroke:#000000;stroke-width:1.465;stroke-dasharray:none;stroke-opacity:1"
         d="m 86.796573,90.928676 c 0,0 6.349513,-1.66621 9.099323,-3.368979 2.66349,-1.649323 6.849194,-6.435746 6.849194,-6.435746 l -0.40973,8.606365 c 0,0 3.08219,-3.008017 3.59506,-4.994001 0.76811,-2.974318 -0.0864,-6.247548 -1.08941,-9.151078 -0.91225,-2.640722 -1.93905,-5.761142 -4.35766,-7.159697 -2.567064,-1.4844 -6.325324,-1.700603 -8.893354,-0.217883 -2.89116,1.669288 -3.968985,5.558753 -4.793423,8.793818 -1.146447,4.498615 0,13.927201 0,13.927201 z"
         sodipodi:nodetypes="caccaaaaac" />
      <path
         style="display:inline;fill:#000000;fill-opacity:1;stroke:#000000;stroke-width:1;stroke-dasharray:none;stroke-opacity:1"
         d="m 96.862246,68.504045 9.586844,14.924971"
         id="path14" />
      <path
         style="display:inline;fill:#000000;fill-opacity:1;stroke:#000000;stroke-width:1;stroke-dasharray:none;stroke-opacity:1"
         d="m 94.465536,68.721927 c 0,0 -2.89367,2.363466 -4.08452,3.788307 -1.36106,1.628511 -3.432437,5.36277 -3.432437,5.36277"
         id="path15"
         sodipodi:nodetypes="cac" />
      <path
         style="display:inline;fill:none;fill-opacity:1;stroke:#000000;stroke-width:1;stroke-dasharray:none;stroke-opacity:1"
         d="m 97.406956,69.375577 c 0,0 -2.20844,5.401992 -4.03083,7.625896 -1.93039,2.355691 -7.081197,5.773895 -7.081197,5.773895"
         id="path16"
         sodipodi:nodetypes="cac" />
      <path
         style="display:inline;fill:none;fill-opacity:1;stroke:#000000;stroke-width:1;stroke-dasharray:none;stroke-opacity:1"
         d="m 101.00202,74.822647 c 0,0 -3.965324,5.481594 -6.536484,7.625897 -2.3246,1.938682 -7.843781,4.575538 -7.843781,4.575538"
         id="path17"
         sodipodi:nodetypes="cac" />
    </g>
    <g
       id="g1"
       inkscape:label="head">
      <path
         id="rect1"
         style="fill:#ffffff;stroke:#000000;stroke-width:1.565"
         d="m 90.787166,42.694533 h 11.104264 c 4.61383,0 8.3282,3.714377 8.3282,8.328199 v 9.195716 c 0,4.613822 -3.71437,8.328199 -8.3282,8.328199 H 90.787166 c -2.53136,0 -4.214474,-1.422672 -5.709854,-3.075532 -1.230198,-1.359751 -1.97612,-2.998297 -2.400462,-4.70796 -0.581001,-2.340838 -0.414341,-4.842321 -0.10894,-7.234771 0.33361,-2.613437 1.0853,-6.228539 2.10051,-7.619712 1.332251,-1.825624 3.500276,-3.214139 6.118746,-3.214139 z"
         sodipodi:nodetypes="sssssssaass" />
      <path
         id="rect5"
         style="fill:#ffffff;stroke:#000000;stroke-width:1.065"
         d="m 88.477176,48.493879 c 0,0 -1.854635,-2.308112 -2.315431,-4.715703 -0.386231,-2.018002 -0.208551,-4.14208 -0.115991,-5.440492 0.09114,-1.278493 0.543782,-2.761717 1.785087,-4.864056 1.257815,-2.1303 2.624055,-3.388186 2.624055,-3.388186 l -0.76601,3.584604 1.17397,-0.758299 c 0,0 -1.29011,4.622643 -1.10123,6.96582 0.12095,1.500468 1.41055,4.290066 1.41055,4.290066"
         sodipodi:nodetypes="cssscccac" />
      <path
         id="path8"
         style="fill:#ffffff;stroke:#000000;stroke-width:1.065"
         d="m 105.97048,45.465506 c 0,0 0.43315,-0.02138 0.89395,-2.428973 0.38623,-2.018002 0.20855,-4.14208 0.11599,-5.440492 -0.0911,-1.278493 -0.54378,-2.761717 -1.78509,-4.864056 -1.25781,-2.1303 -2.62405,-3.388186 -2.62405,-3.388186 l 0.76601,3.584604 -1.17397,-0.758299 c 0,0 1.29011,4.622643 1.10123,6.96582 -0.12095,1.500468 -1.41055,4.290066 -1.41055,4.290066"
         sodipodi:nodetypes="cssscccac" />
      <ellipse
         style="fill:#000000;fill-opacity:1;stroke:#000000;stroke-width:1.065;stroke-dasharray:none;stroke-opacity:1"
         id="path9"
         cx="100.22079"
         cy="58.886547"
         rx="2.5957475"
         ry="3.4918983" />
      <ellipse
         style="fill:#000000;fill-opacity:1;stroke:#000000;stroke-width:0.880807;stroke-dasharray:none;stroke-opacity:1"
         id="ellipse10"
         cx="108.40976"
         cy="58.639332"
         rx="1.7298898"
         ry="3.5839951" />
    </g>
  </g>
</svg>
